<mxfile host="app.diagrams.net" agent="Mozilla/5.0 (Macintosh; Intel Mac OS X 10_15_7) AppleWebKit/537.36 (KHTML, like Gecko) Chrome/138.0.0.0 Safari/537.36" version="27.2.0">
  <diagram name="Page-1" id="9X9iBXvcAOAtvH611Xnp">
    <mxGraphModel dx="946" dy="610" grid="0" gridSize="10" guides="1" tooltips="1" connect="1" arrows="0" fold="1" page="1" pageScale="1" pageWidth="827" pageHeight="1169" math="0" shadow="0">
      <root>
        <mxCell id="0" />
        <mxCell id="1" parent="0" />
        <mxCell id="QxtHzAqx2rWS9rD3kl0U-5" style="edgeStyle=orthogonalEdgeStyle;rounded=0;orthogonalLoop=1;jettySize=auto;html=1;exitX=1;exitY=0.5;exitDx=0;exitDy=0;entryX=0;entryY=0.5;entryDx=0;entryDy=0;" edge="1" parent="1" source="WKkswESIlIRuYTNJoBE_-1" target="QxtHzAqx2rWS9rD3kl0U-1">
          <mxGeometry relative="1" as="geometry" />
        </mxCell>
        <mxCell id="WKkswESIlIRuYTNJoBE_-1" value="&lt;font face=&quot;Times New Roman&quot; style=&quot;font-size: 18px;&quot;&gt;&lt;b&gt;Encoder&lt;/b&gt;&lt;/font&gt;" style="rounded=1;whiteSpace=wrap;html=1;strokeColor=#6c8ebf;fillColor=#dae8fc;gradientColor=#7ea6e0;" parent="1" vertex="1">
          <mxGeometry x="103" y="176.5" width="108" height="69" as="geometry" />
        </mxCell>
        <mxCell id="WKkswESIlIRuYTNJoBE_-2" value="&lt;font face=&quot;Times New Roman&quot; style=&quot;font-size: 18px;&quot;&gt;&lt;b&gt;Reconstructed Input&lt;/b&gt;&lt;/font&gt;" style="rounded=1;whiteSpace=wrap;html=1;strokeColor=#996185;fillColor=#e6d0de;gradientColor=#d5739d;" parent="1" vertex="1">
          <mxGeometry x="529" y="419" width="120" height="60" as="geometry" />
        </mxCell>
        <mxCell id="QxtHzAqx2rWS9rD3kl0U-12" style="edgeStyle=orthogonalEdgeStyle;rounded=0;orthogonalLoop=1;jettySize=auto;html=1;exitX=0.5;exitY=1;exitDx=0;exitDy=0;" edge="1" parent="1" source="WKkswESIlIRuYTNJoBE_-3">
          <mxGeometry relative="1" as="geometry">
            <mxPoint x="587" y="418" as="targetPoint" />
          </mxGeometry>
        </mxCell>
        <mxCell id="WKkswESIlIRuYTNJoBE_-3" value="&lt;b&gt;&lt;font face=&quot;Times New Roman&quot; style=&quot;font-size: 18px;&quot;&gt;Decoder&lt;/font&gt;&lt;/b&gt;" style="rounded=1;whiteSpace=wrap;html=1;strokeColor=#6c8ebf;fillColor=#dae8fc;gradientColor=#7ea6e0;" parent="1" vertex="1">
          <mxGeometry x="527" y="309" width="120" height="60" as="geometry" />
        </mxCell>
        <mxCell id="QxtHzAqx2rWS9rD3kl0U-8" style="edgeStyle=orthogonalEdgeStyle;rounded=1;orthogonalLoop=1;jettySize=auto;html=1;exitX=0.5;exitY=0;exitDx=0;exitDy=0;entryX=0;entryY=0.5;entryDx=0;entryDy=0;curved=0;" edge="1" parent="1" source="QxtHzAqx2rWS9rD3kl0U-1" target="QxtHzAqx2rWS9rD3kl0U-6">
          <mxGeometry relative="1" as="geometry" />
        </mxCell>
        <mxCell id="QxtHzAqx2rWS9rD3kl0U-10" style="edgeStyle=orthogonalEdgeStyle;rounded=1;orthogonalLoop=1;jettySize=auto;html=1;exitX=1;exitY=0.5;exitDx=0;exitDy=0;entryX=0.5;entryY=0;entryDx=0;entryDy=0;curved=0;" edge="1" parent="1" source="QxtHzAqx2rWS9rD3kl0U-1" target="WKkswESIlIRuYTNJoBE_-3">
          <mxGeometry relative="1" as="geometry" />
        </mxCell>
        <mxCell id="QxtHzAqx2rWS9rD3kl0U-1" value="&lt;font style=&quot;font-size: 18px;&quot; face=&quot;Times New Roman&quot;&gt;&lt;b&gt;latent space&lt;/b&gt;&lt;/font&gt;" style="rounded=1;whiteSpace=wrap;html=1;fillColor=#e6d0de;gradientColor=#d5739d;strokeColor=#996185;" vertex="1" parent="1">
          <mxGeometry x="322.5" y="178.5" width="193" height="65" as="geometry" />
        </mxCell>
        <mxCell id="QxtHzAqx2rWS9rD3kl0U-4" style="edgeStyle=orthogonalEdgeStyle;rounded=0;orthogonalLoop=1;jettySize=auto;html=1;exitX=0.5;exitY=1;exitDx=0;exitDy=0;" edge="1" parent="1" source="QxtHzAqx2rWS9rD3kl0U-2">
          <mxGeometry relative="1" as="geometry">
            <mxPoint x="156" y="175" as="targetPoint" />
          </mxGeometry>
        </mxCell>
        <mxCell id="QxtHzAqx2rWS9rD3kl0U-2" value="&lt;b&gt;&lt;font style=&quot;font-size: 18px;&quot; face=&quot;Times New Roman&quot;&gt;Input labels&lt;/font&gt;&lt;/b&gt;" style="ellipse;whiteSpace=wrap;html=1;fillColor=#f5f5f5;strokeColor=#666666;gradientColor=#b3b3b3;" vertex="1" parent="1">
          <mxGeometry x="96" y="31" width="120" height="106" as="geometry" />
        </mxCell>
        <mxCell id="QxtHzAqx2rWS9rD3kl0U-9" style="edgeStyle=orthogonalEdgeStyle;rounded=1;orthogonalLoop=1;jettySize=auto;html=1;exitX=0.5;exitY=1;exitDx=0;exitDy=0;entryX=1;entryY=0.5;entryDx=0;entryDy=0;curved=0;" edge="1" parent="1" source="QxtHzAqx2rWS9rD3kl0U-6" target="QxtHzAqx2rWS9rD3kl0U-1">
          <mxGeometry relative="1" as="geometry" />
        </mxCell>
        <mxCell id="QxtHzAqx2rWS9rD3kl0U-6" value="&lt;b&gt;&lt;font face=&quot;Times New Roman&quot; style=&quot;font-size: 18px;&quot;&gt;Tissue classifier&lt;/font&gt;&lt;/b&gt;" style="ellipse;whiteSpace=wrap;html=1;fillColor=#f5f5f5;gradientColor=#b3b3b3;strokeColor=#666666;" vertex="1" parent="1">
          <mxGeometry x="527" y="39" width="122" height="116" as="geometry" />
        </mxCell>
      </root>
    </mxGraphModel>
  </diagram>
</mxfile>
